<svg width="138" height="60" viewBox="0 0 138 60" fill="none" xmlns="http://www.w3.org/2000/svg">
<path d="M10.8545 32.4541L1.64551 30.252L4.96875 0.703125H37.7207V10.0322H14.458L13.0166 22.9648C13.7907 22.5111 14.9652 22.0306 16.54 21.5234C18.1149 20.9896 19.8766 20.7227 21.8252 20.7227C24.6546 20.7227 27.1637 21.1631 29.3525 22.0439C31.5413 22.9248 33.3965 24.2061 34.918 25.8877C36.4661 27.5693 37.6406 29.6247 38.4414 32.0537C39.2422 34.4827 39.6426 37.2321 39.6426 40.3018C39.6426 42.891 39.2422 45.36 38.4414 47.709C37.6406 50.0312 36.4261 52.1133 34.7979 53.9551C33.1696 55.7702 31.1276 57.1982 28.6719 58.2393C26.2161 59.2803 23.3066 59.8008 19.9434 59.8008C17.4342 59.8008 15.0052 59.4271 12.6562 58.6797C10.334 57.9323 8.23861 56.8245 6.37012 55.3564C4.52832 53.8883 3.04688 52.1133 1.92578 50.0312C0.83138 47.9225 0.257487 45.5202 0.204102 42.8242H11.6553C11.8154 44.4792 12.2425 45.9072 12.9365 47.1084C13.6572 48.2829 14.6048 49.1904 15.7793 49.8311C16.9538 50.4717 18.3285 50.792 19.9033 50.792C21.3714 50.792 22.626 50.5117 23.667 49.9512C24.708 49.3906 25.5488 48.6165 26.1895 47.6289C26.8301 46.6146 27.2972 45.4401 27.5908 44.1055C27.9111 42.7441 28.0713 41.276 28.0713 39.7012C28.0713 38.1263 27.8844 36.6982 27.5107 35.417C27.137 34.1357 26.5632 33.028 25.7891 32.0938C25.015 31.1595 24.0273 30.4388 22.8262 29.9316C21.6517 29.4245 20.277 29.1709 18.7021 29.1709C16.5667 29.1709 14.9118 29.5046 13.7373 30.1719C12.5895 30.8392 11.6286 31.5999 10.8545 32.4541ZM60.3027 0.703125V59H48.291V0.703125H60.3027ZM95.2168 0.703125L72.1143 29.4912L58.7812 43.8252L56.6191 32.4541L65.6279 20.1221L80.4824 0.703125H95.2168ZM81.5635 59L64.3867 32.0537L73.2754 24.6064L95.7773 59H81.5635ZM137.418 26.5283V36.5781H97.459V26.5283H137.418ZM122.924 10.7129V53.1543H111.993V10.7129H122.924Z" fill="white"/>
</svg>
