<svg width="55" height="53" viewBox="0 0 55 53" fill="none" xmlns="http://www.w3.org/2000/svg">
<path d="M42.9666 8.95776H13.52C10.9802 8.95776 8.91895 11.028 8.91895 13.5788V43.1536C8.91895 45.7044 10.9802 47.7747 13.52 47.7747H42.9666C45.5063 47.7747 47.5676 45.7044 47.5676 43.1536V13.5788C47.5676 11.028 45.5063 8.95776 42.9666 8.95776ZM20.8816 23.7452V41.3052H15.3604V23.7452H20.8816ZM15.3604 18.6343C15.3604 17.3404 16.4646 16.3515 18.121 16.3515C19.7774 16.3515 20.8172 17.3404 20.8816 18.6343C20.8816 19.9282 19.851 20.9725 18.121 20.9725C16.4646 20.9725 15.3604 19.9282 15.3604 18.6343ZM41.1262 41.3052H35.6049C35.6049 41.3052 35.6049 32.747 35.6049 32.0631C35.6049 30.2146 34.6847 28.3662 32.3842 28.3292H32.3106C30.0837 28.3292 29.1635 30.2331 29.1635 32.0631C29.1635 32.9041 29.1635 41.3052 29.1635 41.3052H23.6422V23.7452H29.1635V26.1111C29.1635 26.1111 30.9395 23.7452 34.5099 23.7452C38.1631 23.7452 41.1262 26.2683 41.1262 31.3791V41.3052Z" fill="white"/>
</svg>
