<svg width="143" height="103" viewBox="0 0 143 103" fill="none" xmlns="http://www.w3.org/2000/svg">
<g clip-path="url(#clip0_185_6)">
<path d="M39.4595 51.5C39.4564 49.7064 39.8074 47.9298 40.4923 46.2718C41.1772 44.6139 42.1825 43.1071 43.4509 41.8378C44.7192 40.5684 46.2256 39.5614 47.8839 38.8743C49.5421 38.1872 51.3197 37.8336 53.115 37.8336H53.0377C54.8329 37.8336 56.6105 38.1872 58.2688 38.8743C59.927 39.5614 61.4334 40.5684 62.7018 41.8378C63.9701 43.1071 64.9755 44.6139 65.6603 46.2718C66.3452 47.9298 66.6962 49.7064 66.6931 51.5V51.5C66.6931 55.1184 65.2545 58.5886 62.6936 61.1472C60.1327 63.7058 56.6593 65.1433 53.0377 65.1433H53.115C49.4933 65.1433 46.02 63.7058 43.4591 61.1472C40.8982 58.5886 39.4595 55.1184 39.4595 51.5ZM103.347 27.3097H128.773C132.394 27.3097 135.868 25.8723 138.429 23.3137C140.989 20.755 142.428 17.2848 142.428 13.6664V13.6664C142.431 11.8728 142.08 10.0962 141.395 8.43826C140.71 6.78031 139.705 5.27355 138.437 4.0042C137.168 2.73485 135.662 1.72783 134.004 1.04074C132.345 0.353657 130.568 -2.58503e-06 128.773 0L103.347 0C101.552 -2.58503e-06 99.7745 0.353657 98.1162 1.04074C96.458 1.72783 94.9516 2.73485 93.6832 4.0042C92.4149 5.27355 91.4095 6.78031 90.7247 8.43826C90.0398 10.0962 89.6888 11.8728 89.6918 13.6664V13.6664C89.6918 17.2848 91.1305 20.755 93.6914 23.3137C96.2523 25.8723 99.7257 27.3097 103.347 27.3097V27.3097ZM16.0203 102.977H65.4026C69.0242 102.977 72.4975 101.539 75.0584 98.9808C77.6193 96.4222 79.058 92.952 79.058 89.3336V89.3336C79.0611 87.54 78.7101 85.7634 78.0252 84.1054C77.3404 82.4475 76.335 80.9407 75.0666 79.6714C73.7983 78.402 72.2919 77.395 70.6336 76.7079C68.9754 76.0208 67.1978 75.6672 65.4026 75.6672H16.0203C14.225 75.6672 12.4475 76.0208 10.7892 76.7079C9.13091 77.395 7.62451 78.402 6.35618 79.6714C5.08785 80.9407 4.08247 82.4475 3.39759 84.1054C2.7127 85.7634 2.36174 87.54 2.36479 89.3336V89.3336C2.36479 92.952 3.80348 96.4222 6.36438 98.9808C8.92528 101.539 12.3986 102.977 16.0203 102.977V102.977ZM80.8741 65.1433H85.7042L96.9871 37.8336H90.5342L83.6562 55.7466H83.579L76.8169 37.8336H69.9389L80.8741 65.1433ZM105.952 65.1433H111.98V37.8336H105.952V65.1433ZM123.108 65.1433H142.389V59.6072H129.136V54.048H140.998V48.4888H129.136V43.3928H141.694V37.8336H123.147L123.108 65.1433ZM7.80534 27.3328H13.8332V5.32759H21.6386V0H0V5.32759H7.80534V27.3328ZM30.1394 27.3328H36.1673V15.5195H47.8367V27.3328H53.8646V0H47.8367V10.1919H36.1287V0H30.1394V27.3328ZM62.0177 27.3328H81.3378V21.7736H68.0069V16.2144H79.8695V10.6552H68.0069V5.55922H80.565V0H62.0177V27.3328ZM0.966007 65.1664H6.95525V44.2035H7.03253L13.9878 65.1664H18.5473L25.7344 44.2035H25.8117V65.1664H31.8396V37.8336H22.7591L16.4221 55.6694H16.3448L10.0465 37.8336H0.927367L0.966007 65.1664ZM87.5898 103H97.3735C99.3554 103.01 101.327 102.711 103.216 102.112C104.999 101.556 106.663 100.673 108.123 99.5101C109.543 98.3554 110.696 96.9064 111.5 95.2634C112.392 93.4421 112.847 91.4383 112.83 89.4108C112.893 87.216 112.448 85.0363 111.531 83.0409C110.725 81.359 109.528 79.8948 108.038 78.7711C106.478 77.6538 104.71 76.8608 102.837 76.4393C100.797 75.9302 98.7032 75.6709 96.6007 75.6672H87.5512L87.5898 103ZM93.6254 81.2264H97.1803C98.3995 81.222 99.6136 81.3831 100.789 81.7051C101.87 81.9989 102.887 82.4911 103.788 83.1567C104.644 83.8077 105.337 84.6481 105.813 85.612C106.343 86.6977 106.608 87.8939 106.585 89.102C106.619 90.4502 106.355 91.7892 105.813 93.0243C105.351 94.0422 104.641 94.9287 103.749 95.6032C102.826 96.2797 101.774 96.7605 100.658 97.0161C99.3909 97.3078 98.0941 97.4503 96.7939 97.4408H93.5868L93.6254 81.2264ZM121.555 103H132.76C133.989 102.997 135.214 102.868 136.416 102.614C137.581 102.382 138.697 101.951 139.716 101.34C140.683 100.763 141.503 99.9705 142.111 99.0236C142.763 97.9338 143.085 96.6788 143.039 95.4101C143.045 94.5678 142.901 93.7311 142.614 92.9394C142.347 92.1917 141.934 91.5041 141.4 90.9164C140.863 90.3279 140.221 89.8436 139.507 89.488C138.737 89.0951 137.906 88.8341 137.049 88.7159V88.6387C138.377 88.2574 139.565 87.5013 140.473 86.4613C141.362 85.3757 141.821 84.0021 141.764 82.6008C141.825 81.3429 141.516 80.0946 140.875 79.0104C140.299 78.1177 139.5 77.391 138.556 76.9026C137.547 76.3874 136.457 76.0479 135.334 75.8988C134.148 75.7361 132.953 75.6536 131.756 75.6517H121.555V103ZM127.583 80.7631H131.678C132.158 80.7657 132.636 80.8096 133.108 80.8944C133.567 80.9742 134.01 81.1253 134.422 81.3422C134.808 81.5476 135.135 81.8479 135.372 82.2147C135.631 82.6366 135.757 83.1259 135.736 83.6199C135.749 84.1034 135.637 84.5822 135.411 85.0097C135.202 85.3866 134.902 85.7052 134.538 85.9363C134.167 86.1746 133.756 86.3446 133.324 86.4382C132.873 86.5399 132.412 86.5917 131.949 86.5926H127.513L127.583 80.7631ZM127.583 91.6885H132.142C132.672 91.6912 133.201 91.7299 133.726 91.8044C134.258 91.8768 134.778 92.0196 135.272 92.229C135.748 92.424 136.168 92.7345 136.493 93.1324C136.825 93.5769 136.995 94.1222 136.972 94.6766C136.992 95.2023 136.866 95.7232 136.609 96.1822C136.372 96.5843 136.047 96.9274 135.658 97.186C135.267 97.4467 134.828 97.6301 134.368 97.7265C133.903 97.8266 133.429 97.8783 132.954 97.8809H127.544L127.583 91.6885Z" fill="white"/>
</g>
<defs>
<clipPath id="clip0_185_6">
<rect width="143" height="103" fill="white"/>
</clipPath>
</defs>
</svg>
